<?xml version="1.0" encoding="UTF-8" standalone="no"?>
<!-- Created with Inkscape (http://www.inkscape.org/) -->
<svg
   xmlns:dc="http://purl.org/dc/elements/1.1/"
   xmlns:cc="http://web.resource.org/cc/"
   xmlns:rdf="http://www.w3.org/1999/02/22-rdf-syntax-ns#"
   xmlns:svg="http://www.w3.org/2000/svg"
   xmlns="http://www.w3.org/2000/svg"
   xmlns:sodipodi="http://sodipodi.sourceforge.net/DTD/sodipodi-0.dtd"
   xmlns:inkscape="http://www.inkscape.org/namespaces/inkscape"
   id="svg2"
   sodipodi:version="0.32"
   inkscape:version="0.44"
   width="300"
   height="375"
   version="1.0"
   sodipodi:docbase="E:\E MES IMAGES\CARTES"
   sodipodi:docname="Carte ITALIE Adm.svg"
   inkscape:export-filename="E:\E MES IMAGES\CARTES\Carte ITALIE Adm.png"
   inkscape:export-xdpi="90"
   inkscape:export-ydpi="90">
  <metadata
     id="metadata7">
    <rdf:RDF>
      <cc:Work
         rdf:about="">
        <dc:format>image/svg+xml</dc:format>
        <dc:type
           rdf:resource="http://purl.org/dc/dcmitype/StillImage" />
      </cc:Work>
    </rdf:RDF>
  </metadata>
  <defs
     id="defs5" />
  <sodipodi:namedview
     inkscape:window-height="708"
     inkscape:window-width="1024"
     inkscape:pageshadow="2"
     inkscape:pageopacity="0.0"
     guidetolerance="10.0"
     gridtolerance="10.0"
     objecttolerance="10.0"
     borderopacity="1.0"
     bordercolor="#666666"
     pagecolor="#ffffff"
     id="base"
     inkscape:zoom="1.3653333"
     inkscape:cx="150"
     inkscape:cy="187.5"
     inkscape:window-x="-4"
     inkscape:window-y="-4"
     inkscape:current-layer="svg2" />
  <rect
     style="opacity:1;fill:#d3ebfa;fill-opacity:1"
     id="rect3706"
     width="299.56055"
     height="375"
     x="0.73242188"
     y="0" />
  <path
     style="fill:#e3dbdb;fill-rule:evenodd;stroke:black;stroke-width:1px;stroke-linecap:butt;stroke-linejoin:miter;stroke-opacity:1;fill-opacity:1"
     d="M 0,0 L 0,124.51172 L 8.0566406,124.51172 L 17.578125,124.51172 L 24.902344,123.04688 L 30.761719,120.11719 L 32.958984,117.1875 L 35.15625,113.52539 L 37.353516,110.5957 L 35.888672,109.13086 L 30.761719,109.13086 L 28.564453,109.86328 L 27.099609,109.13086 L 24.169922,106.93359 L 19.775391,105.46875 L 17.578125,103.27148 L 16.845703,100.3418 L 17.578125,98.144531 L 19.775391,95.947266 L 19.775391,93.75 L 20.507813,91.552734 L 22.705078,89.355469 L 21.240234,87.890625 L 18.310547,86.425781 L 16.113281,86.425781 L 14.648438,83.496094 L 13.916016,81.298828 L 11.71875,79.101563 L 15.380859,76.171875 L 18.310547,76.904297 L 21.240234,76.171875 L 24.169922,73.242188 L 24.169922,68.847656 L 21.972656,64.453125 L 19.775391,62.255859 L 17.578125,58.59375 L 17.578125,57.128906 L 19.042969,53.466797 L 21.240234,53.466797 L 24.902344,52.001953 L 27.099609,54.199219 L 33.691406,52.001953 L 34.423828,50.537109 L 35.888672,49.804688 L 41.015625,52.001953 L 43.945313,49.804688 L 46.875,46.142578 L 47.607422,41.748047 L 49.072266,39.550781 L 52.001953,35.15625 L 53.466797,34.423828 L 54.199219,36.621094 L 54.199219,39.550781 L 55.664063,43.212891 L 58.59375,44.677734 L 60.791016,46.875 L 63.720703,46.875 L 64.453125,48.339844 L 64.453125,50.537109 L 66.650391,54.199219 L 68.115234,55.664063 L 69.580078,53.466797 L 68.115234,50.537109 L 68.115234,48.339844 L 68.115234,46.875 L 69.580078,44.677734 L 72.509766,41.748047 L 73.974609,37.353516 L 72.509766,35.15625 L 73.242188,32.958984 L 76.171875,33.691406 L 77.636719,34.423828 L 78.369141,38.085938 L 81.298828,38.085938 L 85.693359,40.283203 L 87.890625,38.818359 L 89.355469,38.085938 L 90.820313,40.283203 L 93.017578,41.748047 L 93.75,41.015625 L 94.482422,38.085938 L 93.75,35.15625 L 91.552734,35.15625 L 91.552734,33.691406 L 91.552734,31.494141 L 93.75,29.296875 L 95.947266,29.296875 L 98.876953,32.958984 L 101.80664,32.226563 L 100.3418,30.029297 L 100.3418,26.367188 L 100.3418,21.972656 L 101.07422,20.507813 L 103.27148,20.507813 L 105.46875,20.507813 L 108.39844,21.972656 L 109.13086,23.4375 L 112.06055,24.902344 L 113.52539,23.4375 L 114.25781,20.507813 L 116.45508,16.845703 L 120.11719,16.845703 L 121.58203,15.380859 L 126.70898,16.113281 L 129.63867,17.578125 L 132.56836,16.845703 L 134.76563,15.380859 L 138.42773,13.916016 L 142.82227,13.183594 L 141.35742,16.113281 L 139.89258,17.578125 L 140.625,19.775391 L 142.08984,19.775391 L 142.82227,23.4375 L 143.55469,25.634766 L 145.01953,27.832031 L 149.41406,27.832031 L 153.80859,27.832031 L 157.4707,29.296875 L 158.93555,30.761719 L 163.33008,30.761719 L 165.52734,32.226563 L 170.6543,31.494141 L 174.31641,32.958984 L 174.31641,35.15625 L 172.85156,37.353516 L 168.45703,37.353516 L 168.45703,39.550781 L 168.45703,41.015625 L 167.72461,41.748047 L 170.6543,43.945313 L 173.58398,43.945313 L 173.58398,46.875 L 169.18945,47.607422 L 169.18945,50.537109 L 172.85156,51.269531 L 173.58398,52.001953 L 172.11914,54.199219 L 171.38672,54.931641 L 175.04883,55.664063 L 178.71094,56.396484 L 178.71094,60.791016 L 180.17578,63.720703 L 175.04883,62.988281 L 169.92188,67.382813 L 172.85156,71.777344 L 174.31641,69.580078 L 175.04883,71.777344 L 175.78125,75.439453 L 177.97852,79.833984 L 180.9082,82.763672 L 180.9082,79.101563 L 183.10547,76.171875 L 186.76758,73.242188 L 186.76758,68.115234 L 186.76758,66.650391 L 189.69727,71.777344 L 193.35938,78.369141 L 196.28906,84.960938 L 193.35938,89.355469 L 197.02148,92.285156 L 201.41602,96.679688 L 197.75391,100.3418 L 205.07813,109.13086 L 210.9375,115.72266 L 214.59961,112.79297 L 214.59961,111.32813 L 214.59961,117.91992 L 216.06445,125.24414 L 223.38867,123.7793 L 226.31836,127.44141 L 235.83984,134.76563 L 241.69922,140.625 L 252.68555,146.48438 L 264.4043,150.87891 L 272.46094,156.00586 L 278.32031,158.93555 L 288.57422,162.59766 L 295.89844,167.72461 L 300.29297,174.31641 L 300.29297,0 L 0,0 z "
     id="path3837" />
  <path
     style="fill:#fff3e3;fill-opacity:1;fill-rule:evenodd;stroke:black;stroke-width:1px;stroke-linecap:butt;stroke-linejoin:miter;stroke-opacity:1"
     d="M 30.761719,120.11719 L 35.888672,120.11719 L 39.550781,119.38477 L 43.945313,119.38477 L 46.875,116.45508 L 48.339844,114.25781 L 49.072266,110.5957 L 50.537109,109.13086 L 54.199219,109.13086 L 54.199219,105.46875 L 56.396484,101.80664 L 60.058594,100.3418 L 64.453125,101.07422 L 67.382813,101.80664 L 70.3125,102.53906 L 74.707031,104.00391 L 76.171875,106.20117 L 79.101563,108.39844 L 82.03125,109.86328 L 84.228516,111.32813 L 86.425781,112.06055 L 89.355469,114.25781 L 90.820313,114.25781 L 94.482422,117.91992 L 95.214844,123.7793 L 95.214844,128.90625 L 97.412109,131.10352 L 98.144531,131.10352 L 98.144531,134.0332 L 99.609375,134.76563 L 101.80664,136.23047 L 101.80664,142.08984 L 101.80664,145.75195 L 105.46875,146.48438 L 106.93359,148.68164 L 106.93359,151.61133 L 110.5957,153.07617 L 112.06055,155.27344 L 114.25781,157.4707 L 116.45508,159.66797 L 114.99023,161.13281 L 114.25781,162.59766 L 113.52539,164.0625 L 114.25781,165.52734 L 115.72266,165.52734 L 117.1875,164.0625 L 119.38477,163.33008 L 123.04688,165.52734 L 127.44141,169.18945 L 128.90625,172.85156 L 130.37109,175.04883 L 134.0332,175.78125 L 136.23047,178.71094 L 139.89258,180.9082 L 139.89258,183.10547 L 142.82227,185.30273 L 144.28711,187.5 L 147.94922,191.89453 L 151.61133,192.62695 L 155.27344,194.82422 L 157.4707,196.28906 L 157.4707,198.48633 L 159.66797,198.48633 L 161.86523,197.75391 L 166.25977,198.48633 L 166.99219,199.21875 L 172.11914,199.21875 L 175.04883,199.95117 L 178.71094,202.88086 L 178.71094,205.07813 L 179.44336,209.47266 L 183.10547,211.66992 L 185.30273,211.66992 L 189.69727,211.66992 L 191.16211,213.13477 L 191.16211,215.33203 L 186.03516,218.99414 L 191.16211,217.5293 L 192.62695,218.26172 L 195.55664,217.5293 L 197.75391,216.79688 L 199.95117,218.99414 L 201.41602,221.19141 L 202.88086,223.38867 L 202.88086,225.58594 L 201.41602,227.7832 L 201.41602,229.24805 L 203.61328,230.71289 L 206.54297,230.71289 L 210.20508,232.17773 L 209.47266,234.375 L 212.40234,235.83984 L 213.86719,235.10742 L 215.33203,233.64258 L 218.26172,234.375 L 218.99414,237.30469 L 220.45898,237.30469 L 220.45898,243.89648 L 221.92383,247.55859 L 224.12109,250.48828 L 224.85352,254.15039 L 227.05078,256.34766 L 225.58594,260.00977 L 227.05078,262.20703 L 227.05078,263.67188 L 228.51563,266.60156 L 230.71289,266.60156 L 230.71289,270.26367 L 229.24805,272.46094 L 227.7832,272.46094 L 223.38867,273.19336 L 220.45898,276.12305 L 222.65625,276.85547 L 222.65625,279.05273 L 222.65625,283.44727 L 221.19141,284.91211 L 216.06445,284.91211 L 216.06445,287.8418 L 218.26172,290.77148 L 216.06445,293.70117 L 218.26172,295.89844 L 221.19141,295.89844 L 226.31836,295.89844 L 229.24805,292.23633 L 229.24805,289.30664 L 231.44531,287.10938 L 232.91016,284.17969 L 237.30469,284.17969 L 239.50195,281.25 L 239.50195,279.05273 L 239.50195,276.85547 L 237.30469,274.6582 L 240.23438,269.53125 L 244.62891,267.33398 L 248.29102,266.60156 L 250.48828,268.79883 L 252.68555,265.86914 L 251.2207,262.93945 L 251.2207,255.61523 L 251.95313,253.41797 L 249.75586,251.95313 L 249.75586,250.48828 L 246.09375,249.02344 L 241.69922,247.55859 L 238.76953,246.09375 L 237.30469,243.16406 L 236.57227,241.69922 L 238.76953,239.50195 L 240.23438,236.57227 L 240.23438,232.91016 L 240.9668,231.44531 L 243.16406,228.51563 L 243.16406,227.05078 L 245.36133,225.58594 L 245.36133,223.38867 L 247.55859,221.19141 L 249.75586,220.45898 L 254.88281,220.45898 L 252.68555,222.65625 L 253.41797,224.85352 L 257.08008,225.58594 L 259.27734,227.05078 L 262.93945,227.05078 L 265.86914,228.51563 L 268.06641,227.7832 L 270.26367,229.98047 L 270.99609,233.64258 L 270.99609,236.57227 L 273.19336,238.76953 L 274.6582,240.23438 L 279.05273,240.9668 L 279.05273,239.50195 L 279.78516,236.57227 L 281.98242,235.10742 L 283.44727,232.91016 L 280.51758,228.51563 L 278.32031,224.85352 L 278.32031,222.65625 L 272.46094,219.72656 L 270.99609,215.33203 L 268.06641,215.33203 L 268.06641,213.86719 L 261.47461,210.9375 L 255.61523,208.00781 L 252.68555,204.3457 L 245.36133,201.41602 L 240.23438,199.21875 L 233.64258,197.02148 C 233.64258,197.02148 236.57227,195.55664 233.64258,195.55664 C 230.71289,195.55664 227.05078,193.35938 227.05078,193.35938 L 224.85352,191.89453 L 223.38867,189.69727 L 223.38867,186.76758 L 227.7832,185.30273 L 230.71289,182.37305 L 229.24805,177.97852 L 223.38867,177.97852 L 213.86719,177.97852 L 205.81055,177.97852 L 202.88086,175.04883 L 197.02148,173.58398 L 194.0918,169.92188 L 190.42969,165.52734 L 185.30273,161.86523 L 182.37305,157.4707 L 180.9082,154.54102 L 177.97852,149.41406 L 177.24609,145.75195 L 177.24609,139.89258 L 174.31641,133.30078 L 172.11914,130.37109 L 172.11914,127.44141 L 166.25977,125.24414 L 163.33008,123.04688 L 161.86523,121.58203 L 156.00586,117.1875 L 153.07617,115.72266 L 150.14648,115.72266 L 147.2168,112.79297 L 146.48438,109.86328 L 144.28711,108.39844 L 143.55469,104.00391 L 141.35742,101.07422 L 142.08984,98.144531 L 142.82227,95.214844 L 140.625,91.552734 L 140.625,88.623047 L 144.28711,87.890625 L 146.48438,86.425781 L 148.68164,82.763672 L 144.28711,81.298828 L 143.55469,78.369141 L 138.42773,73.242188 L 140.625,71.044922 L 141.35742,67.382813 L 145.01953,65.185547 L 149.41406,65.185547 L 147.94922,66.650391 L 143.55469,68.847656 L 143.55469,70.3125 L 146.48438,68.847656 L 149.41406,67.382813 L 152.34375,63.720703 L 158.20313,63.720703 L 159.66797,61.523438 L 159.66797,58.59375 L 161.86523,56.396484 L 163.33008,58.59375 L 165.52734,58.59375 L 166.99219,60.791016 L 169.92188,60.791016 L 171.38672,57.128906 L 174.31641,59.326172 L 175.78125,61.523438 L 175.04883,63.720703 L 179.44336,63.720703 L 179.44336,60.058594 L 177.24609,56.396484 L 171.38672,55.664063 L 172.85156,52.734375 L 172.85156,51.269531 L 169.92188,51.269531 L 169.92188,49.804688 L 170.6543,47.607422 L 174.31641,46.142578 L 174.31641,43.945313 L 169.92188,43.945313 L 167.72461,42.480469 L 167.72461,40.283203 L 168.45703,38.085938 L 172.11914,37.353516 L 175.04883,34.423828 L 175.04883,32.958984 L 169.92188,32.226563 L 164.79492,32.226563 C 164.79492,32.226563 165.52734,30.761719 162.59766,30.761719 C 159.66797,30.761719 157.4707,30.761719 157.4707,30.761719 L 154.54102,27.832031 L 153.07617,27.832031 L 150.14648,27.832031 L 146.48438,27.832031 L 143.55469,24.169922 L 142.08984,21.972656 L 142.82227,21.240234 L 139.89258,19.042969 L 139.16016,17.578125 L 142.08984,13.916016 L 137.69531,14.648438 L 134.0332,16.113281 L 129.63867,17.578125 L 125.97656,16.113281 L 123.04688,16.113281 L 120.11719,17.578125 L 115.72266,17.578125 L 114.25781,22.705078 L 112.79297,24.902344 L 109.86328,24.169922 L 107.66602,21.240234 L 104.00391,20.507813 L 101.07422,20.507813 L 101.07422,26.367188 L 101.07422,32.226563 L 98.876953,32.958984 L 95.947266,29.296875 L 94.482422,29.296875 L 91.552734,32.958984 L 91.552734,35.15625 L 94.482422,37.353516 L 94.482422,41.015625 L 93.017578,42.480469 L 90.087891,40.283203 L 90.087891,38.085938 L 87.158203,38.085938 L 84.960938,40.283203 L 79.101563,38.818359 L 77.636719,36.621094 L 77.636719,34.423828 L 73.974609,33.691406 L 73.242188,35.15625 L 73.974609,38.085938 L 71.777344,43.212891 L 69.580078,44.677734 L 68.115234,49.804688 L 68.847656,52.734375 L 68.847656,54.931641 L 66.650391,54.931641 L 65.917969,52.734375 L 64.453125,50.537109 L 64.453125,46.875 L 60.058594,46.142578 L 56.396484,43.945313 L 54.931641,41.748047 L 54.931641,38.085938 L 53.466797,34.423828 L 52.001953,35.888672 L 49.072266,39.550781 L 46.875,46.142578 L 43.212891,50.537109 L 41.015625,52.734375 L 38.818359,51.269531 L 36.621094,50.537109 L 34.423828,52.001953 L 31.494141,52.734375 L 27.099609,54.199219 L 24.902344,52.734375 L 21.972656,54.199219 L 18.310547,54.199219 L 17.578125,57.861328 L 19.775391,61.523438 L 22.705078,65.185547 L 24.169922,68.847656 L 24.169922,73.974609 L 19.775391,76.904297 L 15.380859,76.904297 L 13.183594,78.369141 L 14.648438,84.228516 L 16.113281,86.425781 L 17.578125,86.425781 L 21.972656,87.158203 L 22.705078,90.087891 L 20.507813,91.552734 L 20.507813,96.679688 L 17.578125,98.144531 L 17.578125,102.53906 L 19.042969,104.73633 L 21.972656,106.93359 L 25.634766,109.13086 L 27.832031,110.5957 L 31.494141,109.13086 L 36.621094,109.13086 L 36.621094,112.06055 L 35.15625,115.72266 L 33.691406,116.45508 L 30.761719,120.11719 z "
     id="path3708" />
  <path
     style="fill:#fff3e3;fill-rule:evenodd;stroke:black;stroke-width:1px;stroke-linecap:butt;stroke-linejoin:miter;stroke-opacity:1;fill-opacity:1"
     d="M 48.339844,208.00781 L 52.734375,211.66992 L 54.931641,210.9375 L 59.326172,208.74023 L 62.255859,208.00781 L 65.917969,202.88086 L 68.115234,202.88086 L 70.3125,199.95117 L 71.044922,197.75391 L 73.242188,199.95117 L 76.171875,199.95117 L 79.101563,199.95117 L 79.833984,202.88086 L 81.298828,205.07813 L 81.298828,206.54297 L 77.636719,208.74023 L 81.298828,210.20508 L 82.763672,213.86719 L 82.763672,217.5293 L 84.960938,218.26172 L 84.960938,223.38867 L 84.228516,225.58594 L 82.03125,227.7832 L 81.298828,230.71289 L 82.763672,232.17773 L 83.496094,235.83984 L 82.763672,239.50195 L 81.298828,243.16406 L 81.298828,249.75586 L 81.298828,256.34766 L 79.101563,257.08008 L 79.101563,262.20703 L 75.439453,260.00977 L 73.974609,258.54492 L 71.777344,257.8125 L 66.650391,257.8125 L 66.650391,262.20703 L 65.917969,267.33398 L 62.255859,268.79883 L 57.861328,267.33398 L 57.128906,264.4043 L 54.931641,262.93945 L 54.199219,266.60156 L 53.466797,264.4043 L 49.072266,262.93945 L 49.072266,260.00977 L 51.269531,262.20703 L 54.931641,262.93945 L 54.199219,259.27734 L 52.001953,257.8125 L 54.199219,255.61523 L 52.734375,252.68555 L 53.466797,249.02344 L 53.466797,243.89648 L 55.664063,243.16406 L 55.664063,238.03711 L 53.466797,238.03711 L 52.734375,234.375 C 52.734375,234.375 54.199219,235.10742 54.199219,230.71289 C 54.199219,226.31836 54.199219,223.38867 54.199219,223.38867 L 52.001953,220.45898 L 50.537109,220.45898 L 50.537109,218.26172 L 46.875,218.26172 L 46.875,215.33203 L 46.875,212.40234 L 48.339844,208.00781 z "
     id="path3710" />
  <path
     style="fill:#fff3e3;fill-rule:evenodd;stroke:black;stroke-width:1px;stroke-linecap:butt;stroke-linejoin:miter;stroke-opacity:1;fill-opacity:1"
     d="M 215.33203,284.91211 L 215.33203,290.77148 L 212.40234,294.43359 L 209.47266,297.36328 L 208.74023,300.29297 L 208.00781,300.29297 L 207.27539,302.49023 L 205.81055,303.95508 L 205.81055,307.61719 L 203.61328,308.34961 L 205.07813,315.67383 L 206.54297,315.67383 L 207.27539,319.33594 L 210.9375,320.06836 L 209.47266,322.99805 L 208.00781,324.46289 L 205.81055,326.66016 L 205.81055,332.51953 L 202.88086,331.05469 L 201.41602,329.58984 L 197.75391,331.05469 L 189.69727,327.39258 L 189.69727,324.46289 L 187.5,320.80078 L 183.83789,318.60352 L 180.17578,319.33594 L 174.31641,319.33594 L 171.38672,316.40625 L 170.6543,314.20898 L 164.0625,311.2793 L 162.59766,309.08203 L 157.4707,307.61719 L 154.54102,306.88477 L 150.14648,306.88477 L 146.48438,303.22266 L 145.75195,299.56055 L 145.75195,296.63086 L 146.48438,292.96875 L 150.87891,290.03906 L 153.07617,292.23633 L 156.73828,292.23633 L 158.93555,290.03906 L 158.93555,288.57422 L 164.79492,287.10938 L 167.72461,292.23633 L 172.11914,292.96875 L 175.04883,292.96875 L 178.71094,291.50391 L 182.37305,292.96875 L 187.5,292.96875 L 193.35938,292.96875 L 197.02148,290.03906 L 199.95117,288.57422 L 203.61328,290.03906 L 205.81055,289.30664 L 210.20508,287.10938 L 215.33203,284.91211 z "
     id="path3712" />
  <path
     style="fill:#fff3e3;fill-rule:evenodd;stroke:black;stroke-width:1px;stroke-linecap:butt;stroke-linejoin:miter;stroke-opacity:1;fill-opacity:1"
     d="M 84.594727,145.56885 L 86.05957,144.65332 L 86.05957,143.18848 L 85.510254,142.45605 L 84.411621,142.82227 L 84.228516,143.9209 L 84.594727,145.56885 z "
     id="path3714" />
  <path
     style="fill:#fff3e3;fill-rule:evenodd;stroke:black;stroke-width:1px;stroke-linecap:butt;stroke-linejoin:miter;stroke-opacity:1;fill-opacity:1"
     d="M 93.017578,150.14648 L 91.918945,151.42822 L 90.637207,152.16064 L 92.102051,153.25928 L 94.299317,153.80859 L 95.397949,153.44238 L 95.947266,152.89307 L 96.862793,153.80859 L 97.961426,154.72412 L 99.792481,154.72412 L 100.15869,153.62549 L 100.15869,151.42822 L 100.15869,149.23096 L 99.243164,148.31543 L 97.961426,148.31543 L 97.045899,149.78027 L 96.496582,150.6958 L 95.397949,150.87891 L 94.299317,150.87891 L 93.017578,150.14648 z "
     id="path3716" />
  <path
     style="fill:#fff3e3;fill-rule:evenodd;stroke:black;stroke-width:1px;stroke-linecap:butt;stroke-linejoin:miter;stroke-opacity:1;fill-opacity:1"
     d="M 91.918945,156.37207 L 92.651367,157.65381 L 91.73584,158.56934 L 90.637207,158.56934 L 90.270996,157.4707 L 90.454102,156.73828 L 91.918945,156.37207 z "
     id="path3718" />
  <path
     style="fill:#fff3e3;fill-rule:evenodd;stroke:black;stroke-width:1px;stroke-linecap:butt;stroke-linejoin:miter;stroke-opacity:1;fill-opacity:1"
     d="M 96.679688,164.0625 L 96.862793,165.71045 L 95.214844,166.25977 L 94.848633,165.16113 L 95.214844,164.24561 L 96.679688,164.0625 z "
     id="path3720" />
  <path
     style="fill:#fff3e3;fill-rule:evenodd;stroke:black;stroke-width:1px;stroke-linecap:butt;stroke-linejoin:miter;stroke-opacity:1;fill-opacity:1"
     d="M 111.14502,166.07666 L 111.14502,164.97803 L 111.14502,164.0625 L 109.49707,163.51318 L 108.39844,164.24561 L 108.39844,165.52734 L 109.49707,165.71045 L 109.49707,166.44287 L 111.14502,166.07666 z "
     id="path3722" />
  <path
     style="fill:#fff3e3;fill-rule:evenodd;stroke:black;stroke-width:1px;stroke-linecap:butt;stroke-linejoin:miter;stroke-opacity:1;fill-opacity:1"
     d="M 157.10449,207.6416 L 155.82275,208.00781 L 155.45654,208.92334 L 155.82275,210.20508 L 157.65381,210.20508 L 157.65381,209.10645 L 157.10449,207.6416 z "
     id="path3724" />
  <path
     style="fill:#fff3e3;fill-rule:evenodd;stroke:black;stroke-width:1px;stroke-linecap:butt;stroke-linejoin:miter;stroke-opacity:1;fill-opacity:1"
     d="M 177.24609,216.06445 L 179.26025,216.06445 L 179.62647,214.96582 L 180.17578,213.68408 L 178.71094,212.58545 L 176.51367,212.76855 L 176.33057,214.4165 L 177.24609,216.06445 z "
     id="path3726" />
  <path
     style="fill:#fff3e3;fill-rule:evenodd;stroke:black;stroke-width:1px;stroke-linecap:butt;stroke-linejoin:miter;stroke-opacity:1;fill-opacity:1"
     d="M 186.21826,219.72656 L 184.93652,220.64209 L 184.021,219.90967 L 184.57031,219.17725 L 185.11963,218.81103 L 186.21826,219.72656 z "
     id="path3728" />
  <path
     style="fill:#fff3e3;fill-rule:evenodd;stroke:black;stroke-width:1px;stroke-linecap:butt;stroke-linejoin:miter;stroke-opacity:1;fill-opacity:1"
     d="M 49.072266,206.72607 L 50.537109,204.89502 L 50.90332,204.3457 L 52.734375,204.52881 L 52.734375,201.78223 L 50.720215,201.41602 L 49.621582,202.51465 L 48.156738,204.52881 L 47.973633,205.99365 L 49.072266,206.72607 z "
     id="path3730" />
  <path
     style="fill:#fff3e3;fill-rule:evenodd;stroke:black;stroke-width:1px;stroke-linecap:butt;stroke-linejoin:miter;stroke-opacity:1;fill-opacity:1"
     d="M 163.33008,272.64404 C 163.33008,272.64404 162.96387,274.6582 162.23145,274.6582 C 161.49902,274.6582 159.85107,274.6582 159.85107,274.6582 L 159.85107,273.37646 L 160.7666,272.27783 L 162.04834,272.27783 L 163.33008,272.64404 z "
     id="path3732" />
  <path
     style="fill:#fff3e3;fill-rule:evenodd;stroke:black;stroke-width:1px;stroke-linecap:butt;stroke-linejoin:miter;stroke-opacity:1;fill-opacity:1"
     d="M 203.97949,282.89795 C 203.97949,282.89795 204.1626,284.36279 203.24707,284.17969 C 202.33154,283.99658 201.59912,283.08105 201.59912,283.08105 L 201.23291,281.79932 L 200.13428,280.88379 L 199.40186,279.78516 L 198.48633,279.23584 L 197.5708,278.32031 L 196.83838,276.85547 L 198.30322,275.75684 L 200.68359,275.93994 L 201.41602,277.22168 L 202.51465,277.771 L 203.24707,278.86963 L 203.24707,281.25 L 203.97949,282.89795 z "
     id="path3734" />
  <path
     style="fill:#fff3e3;fill-rule:evenodd;stroke:black;stroke-width:1px;stroke-linecap:butt;stroke-linejoin:miter;stroke-opacity:1;fill-opacity:1"
     d="M 207.4585,273.01025 L 208.74023,272.09473 L 209.47266,271.1792 L 208.74023,270.26367 L 207.09229,270.08057 L 205.99365,271.1792 L 206.35986,272.09473 L 207.4585,273.01025 z "
     id="path3736" />
  <path
     style="fill:#fff3e3;fill-rule:evenodd;stroke:black;stroke-width:1px;stroke-linecap:butt;stroke-linejoin:miter;stroke-opacity:1;fill-opacity:1"
     d="M 137.146,294.98291 L 136.96289,293.51807 L 135.31494,293.33496 L 135.13184,294.6167 L 135.86426,295.34912 L 137.146,294.98291 z "
     id="path3738" />
  <path
     style="fill:#fff3e3;fill-rule:evenodd;stroke:black;stroke-width:1px;stroke-linecap:butt;stroke-linejoin:miter;stroke-opacity:1;fill-opacity:1"
     d="M 142.63916,294.7998 L 141.17432,294.43359 L 140.07568,295.71533 L 140.25879,297.54639 L 141.72363,297.9126 L 142.82227,297.18018 L 142.82227,296.08154 L 142.63916,294.7998 z "
     id="path3740" />
  <path
     style="fill:#fff3e3;fill-rule:evenodd;stroke:black;stroke-width:1px;stroke-linecap:butt;stroke-linejoin:miter;stroke-opacity:1;fill-opacity:1"
     d="M 145.20264,299.01123 L 143.55469,298.82812 L 142.82227,300.29297 L 143.9209,301.2085 L 145.56885,301.02539 L 145.20264,299.01123 z "
     id="path3742" />
  <path
     style="fill:#fff3e3;fill-rule:evenodd;stroke:black;stroke-width:1px;stroke-linecap:butt;stroke-linejoin:miter;stroke-opacity:1;fill-opacity:1"
     d="M 135.68115,329.77295 L 137.3291,327.94189 L 135.86426,326.66016 L 133.8501,326.11084 L 132.56836,326.47705 L 130.92041,327.75879 L 132.75146,328.49121 L 132.75146,329.58984 L 133.8501,330.13916 L 135.68115,329.77295 z "
     id="path3744" />
  <path
     style="fill:#e3dbdb;fill-rule:evenodd;stroke:black;stroke-width:1px;stroke-linecap:butt;stroke-linejoin:miter;stroke-opacity:1;fill-opacity:1"
     d="M 0.73242188,332.51953 L 10.986328,332.51953 L 22.705078,337.64648 L 22.705078,342.04102 L 27.099609,342.04102 L 27.099609,338.37891 L 36.621094,335.44922 L 45.410156,332.51953 L 52.734375,326.66016 L 62.255859,325.19531 L 62.255859,329.58984 L 68.115234,328.85742 L 73.242188,329.58984 L 74.707031,334.7168 L 74.707031,340.57617 L 74.707031,344.23828 L 77.636719,344.9707 L 86.425781,339.11133 L 89.355469,332.51953 L 94.482422,325.92773 L 96.679688,327.39258 L 98.144531,334.7168 L 93.75,343.50586 L 90.087891,352.29492 L 90.087891,358.1543 L 90.820313,361.81641 L 95.214844,365.47852 L 100.3418,369.87305 L 104.00391,373.53516 L 104.00391,375 L 0.73242188,375 L 0.73242188,332.51953 z "
     id="path3839" />
  <path
     style="fill:none;fill-rule:evenodd;stroke:black;stroke-width:1px;stroke-linecap:butt;stroke-linejoin:miter;stroke-opacity:1"
     d="M 186.76758,350.09766 L 183.10547,349.36523 L 186.76758,350.09766 z "
     id="path3841" />
  <path
     style="fill:#e3dbdb;fill-rule:evenodd;stroke:black;stroke-width:1px;stroke-linecap:butt;stroke-linejoin:miter;stroke-opacity:1;fill-opacity:1"
     d="M 193.35938,350.83008 L 189.69727,349.36523 L 187.5,351.5625 L 188.23242,354.49219 L 191.89453,354.49219 L 193.35938,350.83008 z "
     id="path3843" />
  <g
     id="g4288"
     transform="translate(-230.7988,64.83216)">
    <path
       id="path1870"
       d="M 305.43634,81.939275 L 304.59779,82.238443 L 304.26237,82.537605 L 304.26237,83.584684 L 304.59779,83.88385 L 304.43009,84.781341 L 303.92695,85.080503 L 303.59153,85.230086 L 303.75924,85.977994 L 304.09467,86.277164 L 303.59153,86.725911 L 303.59153,87.324235 L 304.09467,87.922565 L 304.09467,88.670475 L 303.92695,89.119224 L 304.09467,89.867134 L 303.75924,90.166301 L 303.75924,90.764626 L 303.42383,91.21338 L 303.08841,91.512542 L 302.75298,90.914213 L 302.24986,90.315883 L 301.24359,89.867134 L 299.73421,89.867134 L 299.23108,90.465464 L 298.05712,90.914213 L 297.72169,91.362954 L 297.72169,92.110871 L 297.38628,92.110871 L 296.88314,92.260453 L 296.04459,92.410039 L 295.20604,92.410039 L 294.70291,92.709196 L 293.86436,92.709196 L 293.36124,93.157943 L 292.52269,93.307523 L 292.18726,93.905855 L 291.68414,94.653765 L 291.0133,94.504182 L 290.17475,94.055433 L 290.17475,94.653765 L 289.83933,95.551258 L 289.50391,95.850423 L 288.83307,96.000005 L 288.83307,96.747925 L 288.49765,97.196664 L 288.66536,97.346246 L 289.00078,97.346246 L 289.00078,97.64541 L 288.66536,98.094149 L 288.83307,98.542904 L 288.49765,98.692487 L 287.99453,98.692487 L 287.65911,98.991651 L 287.65911,99.589979 L 287.32369,99.589979 L 286.82055,99.589979 L 286.31742,100.03873 L 285.64659,100.33789 L 286.14971,100.93622 L 286.31742,101.38496 L 287.49139,100.78664 L 287.99453,101.0858 L 287.99453,101.53455 L 287.15597,101.83371 L 287.32369,101.9833 L 288.49765,102.13288 L 288.66536,102.58163 L 289.00078,102.88079 L 288.49765,103.17996 L 287.65911,103.47913 L 286.98826,103.77829 L 286.14971,104.07745 L 286.48514,104.52619 L 286.82055,104.97494 L 286.82055,105.57328 L 286.65285,106.32119 L 286.48514,106.62035 L 287.15597,106.91952 L 287.99453,107.66743 L 288.66536,107.81701 L 289.33621,107.81701 L 289.83933,108.11618 L 290.00704,108.7145 L 290.51017,109.46241 L 290.51017,109.76158 L 289.50391,109.76158 L 289.33621,109.91116 L 288.66536,110.65907 L 288.83307,111.10782 L 288.32994,111.85572 L 287.15597,111.85572 L 287.49139,112.15488 L 287.99453,113.05239 L 287.49139,113.20197 L 287.32369,113.80029 L 288.16223,113.6507 L 288.32994,113.50113 L 289.16849,113.50113 L 289.50391,113.35156 L 290.00704,113.35156 L 290.67788,113.05239 L 291.85185,113.20197 L 291.85185,113.94988 L 291.68414,114.54821 L 291.68414,114.84738 L 290.84559,114.99696 L 291.18101,115.4457 L 290.84559,116.19361 L 289.83933,116.19361 L 290.00704,117.0911 L 289.67162,117.68943 L 288.32994,117.9886 L 289.50391,118.28777 L 289.67162,118.73652 L 290.17475,118.73652 L 290.84559,118.43735 L 291.34872,118.13819 L 291.51642,118.73652 L 291.18101,118.88609 L 291.51642,119.18526 L 292.01957,119.18526 L 292.8581,119.18526 L 294.03208,119.63401 L 294.3675,119.78359 L 293.52895,120.5315 L 293.19353,120.5315 L 292.35497,120.68107 L 291.68414,121.2794 L 291.34872,121.57858 L 291.34872,121.87773 L 291.34872,122.62565 L 291.68414,122.92481 L 292.01957,123.67272 L 292.69041,123.67272 L 292.8581,124.42063 L 293.86436,124.71979 L 294.3675,125.16854 L 294.70291,125.31813 L 295.54147,125.31813 L 296.38002,125.76688 L 297.21856,126.06604 L 297.8894,126.21561 L 297.55397,126.51478 L 298.39253,126.66436 L 298.89566,126.96353 L 298.39253,127.41228 L 298.72796,128.16019 L 299.5665,128.16019 L 300.06963,128.75853 L 300.90817,129.05769 L 301.91443,128.60893 L 302.41757,127.26271 L 302.41757,126.96353 L 301.57901,126.96353 L 301.74672,126.66436 L 302.41757,126.06604 L 302.92069,125.31813 L 302.92069,124.57022 L 302.75298,124.42063 L 303.25611,124.12147 L 303.75924,123.67272 L 304.59779,123.37356 L 304.26237,122.92481 L 304.93321,122.47607 L 304.26237,122.02732 L 303.75924,122.02732 L 303.25611,122.32649 L 303.08841,122.02732 L 303.75924,121.57858 L 304.43009,121.57858 L 304.43009,121.2794 L 304.7655,121.2794 L 305.26863,120.68107 L 304.93321,120.23233 L 305.10093,119.48441 L 305.77176,119.33484 L 305.60405,118.28777 L 305.43634,116.79194 L 305.43634,114.99696 L 305.43634,113.6507 L 305.93947,112.90281 L 305.93947,112.30447 L 305.93947,111.85572 L 306.61031,110.95823 L 307.28114,109.91116 L 308.28741,109.01367 L 308.62282,108.26575 L 308.79053,107.36826 L 308.79053,106.62035 L 308.95825,105.72286 L 308.95825,104.82535 L 308.79053,104.22704 L 309.29367,103.32955 L 308.95825,101.9833 L 308.45512,101.38496 L 308.45512,99.889144 L 308.95825,99.141233 L 308.95825,98.542904 L 308.62282,98.24374 L 308.62282,97.196664 L 308.62282,96.149595 L 308.45512,94.803347 L 308.28741,94.354609 L 307.44886,93.307523 L 306.4426,91.961285 L 306.94573,91.21338 L 306.94573,90.615045 L 307.11344,90.016721 L 306.94573,89.567967 L 307.61656,88.520894 L 307.61656,87.772983 L 307.44886,86.725911 L 307.44886,85.379666 L 306.94573,84.183006 L 306.94573,82.986347 L 306.94573,82.537605 L 306.61031,82.388025 L 306.27489,81.939275 L 305.43634,81.939275 z "
       style="fill:#e3dbdb;fill-opacity:1;fill-rule:evenodd;stroke:black;stroke-width:1;stroke-linecap:round;stroke-linejoin:round;stroke-opacity:1;stroke-miterlimit:4;stroke-dasharray:none" />
  </g>
  <path
     style="fill:none;fill-rule:evenodd;stroke:black;stroke-width:1px;stroke-linecap:butt;stroke-linejoin:miter;stroke-opacity:1"
     d="M 41.015625,52.734375 L 41.015625,57.861328 L 42.480469,59.326172 L 42.480469,61.523438 L 41.015625,64.453125 L 38.085938,63.720703 L 35.888672,63.720703 L 32.958984,63.720703 L 30.029297,65.185547 L 28.564453,65.917969 L 24.169922,66.650391"
     id="path5235" />
  <path
     style="fill:none;fill-rule:evenodd;stroke:black;stroke-width:1px;stroke-linecap:butt;stroke-linejoin:miter;stroke-opacity:1"
     d="M 60.791016,45.410156 L 61.523438,49.804688 L 59.326172,51.269531 L 58.59375,54.931641 L 57.861328,56.396484 L 59.326172,60.058594 L 60.058594,62.255859 L 60.058594,65.185547 L 60.791016,66.650391 L 64.453125,67.382813 L 64.453125,70.3125 L 62.255859,70.3125 L 60.791016,73.242188 L 59.326172,71.777344 L 56.396484,70.3125 L 56.396484,73.974609 L 57.128906,76.904297 L 59.326172,81.298828 L 62.255859,80.566406 L 64.453125,80.566406 L 67.382813,82.763672 L 67.382813,85.693359 L 67.382813,88.623047 L 69.580078,88.623047 L 73.242188,90.820313 L 71.777344,95.214844 L 68.115234,93.75 L 66.650391,91.552734 L 65.917969,95.947266 L 62.255859,97.412109 L 60.791016,95.214844 L 59.326172,93.75 L 58.59375,96.679688 L 54.199219,98.876953 L 51.269531,98.876953 L 49.072266,96.679688 L 49.072266,99.609375 L 46.875,101.80664 L 44.677734,104.00391 L 44.677734,107.66602 L 43.212891,109.13086 L 38.818359,109.13086 L 37.353516,109.86328"
     id="path5237" />
  <path
     style="fill:none;fill-rule:evenodd;stroke:black;stroke-width:1px;stroke-linecap:butt;stroke-linejoin:miter;stroke-opacity:1"
     d="M 90.087891,112.79297 L 88.623047,108.39844 L 87.158203,108.39844 L 84.960938,105.46875 L 82.03125,101.07422 L 79.101563,99.609375 L 77.636719,100.3418 L 78.369141,97.412109 L 76.904297,96.679688 L 75.439453,95.214844 L 72.509766,95.214844 L 72.509766,93.017578 L 73.974609,91.552734 L 75.439453,89.355469 L 75.439453,86.425781 L 75.439453,83.496094 L 76.904297,79.101563 L 80.566406,77.636719 L 82.763672,80.566406 L 88.623047,80.566406 L 88.623047,78.369141 L 90.087891,79.833984 L 93.75,81.298828 L 95.947266,80.566406 L 100.3418,82.763672 L 101.80664,84.960938 L 102.53906,85.693359 L 104.73633,82.763672 L 106.20117,82.03125 L 109.86328,83.496094 L 111.32813,85.693359 L 112.06055,82.763672 L 114.99023,82.763672 L 117.91992,84.960938 L 121.58203,83.496094 L 119.38477,80.566406 L 117.1875,78.369141 L 114.25781,79.833984 L 113.52539,77.636719 L 113.52539,76.171875 L 110.5957,73.242188 L 108.39844,73.242188 L 105.46875,73.242188 L 105.46875,68.847656 L 104.73633,66.650391 L 104.73633,64.453125 L 104.73633,61.523438 L 106.20117,58.59375 L 107.66602,58.59375 L 109.86328,54.931641 L 106.93359,54.931641 L 104.73633,56.396484 L 103.27148,56.396484 L 102.53906,53.466797 L 101.07422,50.537109 L 101.07422,48.339844 L 103.27148,44.677734 L 103.27148,41.748047 L 103.27148,40.283203 L 102.53906,38.818359 L 104.73633,36.621094 L 103.27148,34.423828 L 101.07422,32.958984"
     id="path5239" />
  <path
     style="fill:none;fill-rule:evenodd;stroke:black;stroke-width:1px;stroke-linecap:butt;stroke-linejoin:miter;stroke-opacity:1"
     d="M 109.13086,56.396484 L 111.32813,60.058594 L 113.52539,60.058594 L 117.1875,60.058594 L 118.65234,55.664063 L 120.11719,52.001953 L 123.7793,49.072266 L 125.97656,49.072266 L 126.70898,50.537109 L 127.44141,52.001953 L 129.63867,50.537109 L 129.63867,47.607422 L 129.63867,45.410156 L 133.30078,45.410156 L 134.76563,43.945313 L 133.30078,42.480469 L 131.83594,40.283203 L 131.83594,38.085938 L 134.0332,36.621094 L 131.10352,34.423828 L 132.56836,32.958984 L 134.0332,32.226563 L 136.96289,32.226563 L 136.96289,30.761719 L 136.96289,28.564453 L 139.16016,27.099609 L 141.35742,29.296875 L 141.35742,31.494141 L 142.82227,30.029297 L 145.75195,28.564453 L 145.75195,27.099609 L 152.34375,27.832031 L 153.07617,30.761719 L 152.34375,31.494141 L 152.34375,32.958984 L 150.14648,34.423828 L 147.2168,34.423828 L 147.2168,38.085938 L 145.75195,39.550781 L 143.55469,41.015625 L 144.28711,43.945313 L 147.2168,43.945313 L 147.2168,48.339844 L 145.01953,48.339844 L 145.01953,50.537109 L 147.94922,52.001953 L 147.94922,54.199219 L 149.41406,57.128906 L 151.61133,57.128906 L 156.00586,54.931641 L 161.13281,57.861328"
     id="path5241" />
  <path
     style="fill:none;fill-rule:evenodd;stroke:black;stroke-width:1px;stroke-linecap:butt;stroke-linejoin:miter;stroke-opacity:1"
     d="M 120.84961,82.763672 L 125.24414,84.960938 L 129.63867,87.158203 L 131.10352,83.496094 L 134.0332,82.763672 L 136.96289,84.228516 L 139.16016,84.228516 L 140.625,86.425781 L 142.82227,89.355469 L 145.01953,87.158203"
     id="path5243" />
  <path
     style="fill:none;fill-rule:evenodd;stroke:black;stroke-width:1px;stroke-linecap:butt;stroke-linejoin:miter;stroke-opacity:1"
     d="M 82.03125,101.07422 L 85.693359,99.609375 L 86.425781,98.876953 L 90.087891,99.609375 L 93.017578,103.27148 L 97.412109,106.20117 L 101.07422,109.13086 L 105.46875,109.13086 L 109.13086,111.32813 L 109.86328,109.86328 L 114.99023,110.5957 L 116.45508,108.39844 L 121.58203,107.66602 L 128.17383,109.86328 L 128.17383,113.52539 L 127.44141,114.99023 L 128.90625,118.65234 L 131.10352,119.38477 L 136.23047,120.11719 L 139.16016,120.11719 L 136.96289,117.91992 L 139.16016,117.1875 L 143.55469,114.25781 L 145.75195,116.45508 L 147.94922,119.38477 L 152.34375,118.65234 L 152.34375,115.72266"
     id="path5245" />
  <path
     style="fill:none;fill-rule:evenodd;stroke:black;stroke-width:1px;stroke-linecap:butt;stroke-linejoin:miter;stroke-opacity:1"
     d="M 138.42773,120.11719 L 142.08984,123.7793 L 139.89258,125.24414 L 138.42773,128.17383 L 136.96289,133.30078 L 138.42773,135.49805 L 140.625,136.96289 L 136.96289,137.69531 L 132.56836,139.89258 L 134.0332,144.28711 L 133.30078,147.94922 L 133.30078,149.41406 L 131.10352,151.61133 L 128.90625,154.54102 L 127.44141,157.4707 L 123.7793,157.4707 L 123.7793,161.13281 L 122.31445,164.79492"
     id="path5247" />
  <path
     style="fill:none;fill-rule:evenodd;stroke:black;stroke-width:1px;stroke-linecap:butt;stroke-linejoin:miter;stroke-opacity:1"
     d="M 139.16016,126.70898 L 143.55469,130.37109 L 147.2168,130.37109 L 150.14648,130.37109 L 152.34375,135.49805 L 155.27344,137.69531 L 153.07617,141.35742 L 154.54102,145.01953 L 157.4707,146.48438 L 158.93555,147.94922 L 161.13281,149.41406 L 162.59766,152.34375 L 166.25977,153.80859 L 169.18945,151.61133 L 172.11914,151.61133 L 174.31641,150.87891 L 174.31641,149.41406 L 177.24609,147.94922"
     id="path5249" />
  <path
     style="fill:none;fill-rule:evenodd;stroke:black;stroke-width:1px;stroke-linecap:butt;stroke-linejoin:miter;stroke-opacity:1"
     d="M 131.83594,150.14648 L 135.49805,153.80859 L 135.49805,156.00586 L 137.69531,154.54102 L 139.89258,156.00586 L 139.89258,158.93555 L 142.82227,160.40039 L 144.28711,162.59766 L 148.68164,164.0625 L 148.68164,162.59766 L 150.87891,161.86523 L 151.61133,160.40039 L 153.80859,158.93555 L 155.27344,156.73828 L 159.66797,156.73828 L 160.40039,153.80859 L 163.33008,152.34375 L 166.99219,154.54102 L 166.99219,157.4707 L 164.79492,157.4707 L 161.13281,158.20313 L 161.13281,163.33008 L 164.0625,168.45703 L 164.79492,172.11914 L 161.13281,171.38672 L 156.73828,173.58398 L 158.93555,175.04883 L 164.0625,176.51367 L 165.52734,180.9082 L 169.18945,181.64063 L 172.11914,181.64063 L 175.04883,183.83789 L 178.71094,184.57031 L 180.17578,188.96484 L 180.17578,191.89453 L 178.71094,191.89453 L 176.51367,195.55664 L 175.04883,199.95117"
     id="path5251" />
  <path
     style="fill:none;fill-rule:evenodd;stroke:black;stroke-width:1px;stroke-linecap:butt;stroke-linejoin:miter;stroke-opacity:1"
     d="M 178.71094,184.57031 L 183.10547,183.10547 L 185.30273,182.37305 L 185.30273,180.9082 L 186.76758,179.44336 L 188.23242,180.9082 L 190.42969,182.37305 L 193.35938,180.17578 L 196.28906,175.04883 L 197.75391,172.85156 L 200.68359,174.31641"
     id="path5253" />
  <path
     style="fill:none;fill-rule:evenodd;stroke:black;stroke-width:1px;stroke-linecap:butt;stroke-linejoin:miter;stroke-opacity:1"
     d="M 205.81055,177.97852 L 204.3457,183.10547 L 206.54297,185.30273 L 205.07813,186.76758 L 202.14844,186.03516 L 202.14844,191.16211 L 204.3457,192.62695 L 200.68359,192.62695 L 197.02148,191.89453 L 194.0918,194.82422 L 189.69727,191.89453 L 187.5,191.89453 L 184.57031,190.42969 L 182.37305,189.69727 L 182.37305,194.82422 L 180.9082,194.0918 L 179.44336,191.89453"
     id="path5255" />
  <path
     style="fill:none;fill-rule:evenodd;stroke:black;stroke-width:1px;stroke-linecap:butt;stroke-linejoin:miter;stroke-opacity:1"
     d="M 202.88086,192.62695 L 205.81055,197.75391 L 208.74023,198.48633 L 206.54297,202.14844 L 208.74023,202.88086 L 211.66992,202.88086 L 216.06445,204.3457 L 218.99414,202.88086 L 222.65625,202.88086 L 224.85352,204.3457 C 224.85352,204.3457 224.85352,202.88086 225.58594,205.81055 C 226.31836,208.74023 226.31836,208.74023 226.31836,208.74023 L 229.98047,208.74023 L 232.91016,210.9375 L 233.64258,213.86719 L 233.64258,215.33203 L 237.30469,215.33203 L 237.30469,213.13477 L 241.69922,213.13477 L 241.69922,216.06445 L 241.69922,219.72656 L 243.16406,222.65625 L 246.82617,222.65625 L 246.09375,225.58594 L 243.89648,226.31836 L 241.69922,229.98047 L 240.9668,232.17773 L 238.76953,231.44531 L 233.64258,230.71289 L 234.375,234.375 L 234.375,236.57227 L 232.91016,238.03711 L 229.98047,238.03711 L 227.7832,238.03711 L 224.12109,235.10742 L 220.45898,235.83984 L 218.26172,233.64258 L 218.26172,232.91016 L 218.99414,229.98047 L 221.19141,227.05078 L 218.26172,223.38867 L 215.33203,221.92383 L 215.33203,218.99414 L 213.13477,216.06445 L 212.40234,213.86719 L 210.20508,210.9375 L 211.66992,209.47266 L 215.33203,206.54297 L 215.33203,203.61328"
     id="path5257" />
</svg>
