<?xml version="1.0" encoding="utf-8"?>
<svg width="22.00061px" height="22.00061px" viewBox="0 0 22.00061 22.00061" version="1.1" xmlns:xlink="http://www.w3.org/1999/xlink" xmlns="http://www.w3.org/2000/svg">
  <path d="M3.00028 0.000281334C2.74441 0.000281334 2.48825 0.0977502 2.29325 0.29325L0.29325 2.29325C-0.0977499 2.68425 -0.0977499 3.31731 0.29325 3.70731L7.58622 11.0003L0.29325 18.2933C-0.0977499 18.6842 -0.0977499 19.3173 0.29325 19.7073L2.29325 21.7073C2.68425 22.0983 3.31731 22.0983 3.70731 21.7073L11.0003 14.4143L18.2933 21.7073C18.6833 22.0983 19.3173 22.0983 19.7073 21.7073L21.7073 19.7073C22.0983 19.3163 22.0983 18.6833 21.7073 18.2933L14.4143 11.0003L21.7073 3.70731C22.0983 3.31731 22.0983 2.68325 21.7073 2.29325L19.7073 0.29325C19.3163 -0.0977499 18.6833 -0.0977499 18.2933 0.29325L11.0003 7.58622L3.70731 0.29325C3.51181 0.0977502 3.25616 0.000281334 3.00028 0.000281334L3.00028 0.000281334Z" id="Forme" fill="#323232" stroke="none" />
</svg>